<svg width="127" height="127" viewBox="0 0 127 127" fill="none" xmlns="http://www.w3.org/2000/svg">
<path d="M47.3351 99.9303C21.0378 107.82 21.0378 86.7817 10.5189 84.152M84.1514 115.709V95.3546C84.3487 92.8467 84.0098 90.3255 83.1574 87.9587C82.305 85.5919 80.9585 83.4336 79.2075 81.6274C95.7222 79.7866 113.078 73.5278 113.078 44.8112C113.077 37.4681 110.252 30.4066 105.189 25.0882C107.587 18.6638 107.417 11.5627 104.716 5.26006C104.716 5.26006 98.5097 3.41925 84.1514 13.0441C72.0967 9.777 59.3898 9.777 47.3351 13.0441C32.9768 3.41925 26.7707 5.26006 26.7707 5.26006C24.0693 11.5627 23.8998 18.6638 26.2973 25.0882C21.1963 30.446 18.3688 37.5714 18.4081 44.969C18.4081 73.4752 35.7643 79.734 52.279 81.7852C50.5487 83.5733 49.2142 85.7056 48.3624 88.0435C47.5106 90.3814 47.1606 92.8725 47.3351 95.3546V115.709" stroke="white" stroke-width="9.01622" stroke-linecap="round" stroke-linejoin="round"/>
</svg>
