<svg width="133" height="136" viewBox="0 0 133 136" fill="none" xmlns="http://www.w3.org/2000/svg">
<path d="M96.9713 36.6286H97.0267M38.7885 11.2705H94.2007C109.502 11.2705 121.907 23.8852 121.907 39.4462V95.7975C121.907 111.359 109.502 123.973 94.2007 123.973H38.7885C23.4869 123.973 11.0824 111.359 11.0824 95.7975V39.4462C11.0824 23.8852 23.4869 11.2705 38.7885 11.2705ZM88.6595 64.0717C89.3433 68.7615 88.5556 73.5512 86.4084 77.7595C84.2612 81.9679 80.8638 85.3805 76.6994 87.512C72.5351 89.6436 67.8159 90.3855 63.213 89.6323C58.6101 88.8791 54.358 86.6691 51.0614 83.3166C47.7648 79.9641 45.5916 75.6399 44.851 70.9591C44.1103 66.2782 44.8399 61.479 46.9359 57.244C49.0319 53.0091 52.3877 49.5542 56.5259 47.3705C60.664 45.1869 65.3739 44.3859 69.9856 45.0813C74.6896 45.7907 79.0446 48.0198 82.4073 51.4395C85.7699 54.8591 87.9619 59.2879 88.6595 64.0717Z" stroke="white" stroke-width="9.01622" stroke-linecap="round" stroke-linejoin="round"/>
</svg>
